<?xml version="1.0" standalone="no"?>
<!DOCTYPE svg PUBLIC "-//W3C//DTD SVG 20010904//EN"
 "http://www.w3.org/TR/2001/REC-SVG-20010904/DTD/svg10.dtd">
<svg version="1.0" xmlns="http://www.w3.org/2000/svg"
 width="272.000000pt" height="233.000000pt" viewBox="0 0 272.000000 233.000000"
 preserveAspectRatio="xMidYMid meet">
<metadata>
Created by potrace 1.16, written by Peter Selinger 2001-2019
</metadata>
<g transform="translate(0.000000,233.000000) scale(0.100000,-0.100000)"
fill="#000000" stroke="none">
<path d="M18 2213 c12 -2 22 -9 22 -14 0 -6 -4 -7 -10 -4 -5 3 -10 -1 -10 -11
0 -13 3 -14 15 -4 11 10 18 9 30 -4 15 -15 13 -16 -24 -13 l-41 3 1 -65 c0
-36 3 -60 6 -52 5 11 7 11 14 0 7 -12 9 -11 9 1 0 13 2 13 9 1 8 -12 12 -12
25 -2 16 13 40 6 31 -9 -3 -5 4 -8 15 -7 11 1 20 7 20 13 0 21 32 25 47 7 13
-17 14 -16 7 6 -4 16 -3 21 5 17 6 -4 17 -4 24 1 6 4 18 8 26 10 28 4 35 21
18 46 -12 19 -13 27 -4 38 10 11 9 11 -5 0 -10 -7 -16 -17 -13 -21 3 -5 1 -11
-5 -15 -5 -3 -10 -2 -10 2 0 5 -12 10 -27 10 -24 2 -69 8 -82 12 -3 0 4 7 15
15 19 14 19 14 -1 13 -13 -1 -20 4 -19 15 1 14 -2 15 -23 5 -17 -8 -27 -7 -35
1 -7 7 -21 11 -32 11 -19 -2 -19 -2 2 -6z"/>
<path d="M489 2124 c-1 -5 -1 -13 0 -18 1 -5 -4 -13 -11 -17 -9 -6 -10 -9 -1
-9 7 0 17 8 23 18 11 16 11 16 6 -1 -3 -10 -6 -21 -6 -23 0 -2 -10 -4 -22 -4
-19 0 -20 -2 -8 -10 13 -8 12 -10 -4 -10 -11 0 -16 -3 -13 -6 9 -10 -12 -46
-24 -39 -5 4 -9 1 -9 -4 0 -6 -5 -10 -12 -8 -7 1 -13 -8 -14 -20 -1 -16 3 -20
15 -15 13 5 14 3 5 -9 -6 -8 -13 -25 -16 -39 -4 -22 -1 -25 21 -24 36 2 53 -6
47 -22 -7 -19 4 -17 21 4 14 16 14 16 9 -1 -4 -12 -2 -16 6 -11 20 13 70 15
62 2 -5 -7 -3 -8 7 -2 8 4 46 10 84 12 126 6 155 9 153 18 -2 5 -12 8 -23 7
-181 -18 -316 -14 -351 11 -16 12 -16 17 -4 47 19 48 61 106 87 120 12 7 20
15 18 19 -3 4 1 8 8 7 39 -1 99 6 82 10 -11 3 -23 10 -27 17 -5 7 -8 7 -8 1 0
-15 -69 -18 -86 -4 -8 6 -15 8 -15 3z"/>
<path d="M1954 2036 c-3 -8 -19 -13 -37 -13 -18 1 -38 -2 -44 -6 -6 -4 -23 -8
-37 -9 -14 -1 -26 -6 -26 -10 0 -4 -8 -5 -17 -2 -14 5 -15 4 -4 -4 12 -8 19
-33 23 -79 2 -15 18 -6 18 10 0 7 8 21 17 32 13 16 15 17 10 3 -4 -10 -2 -18
3 -18 6 0 10 5 10 10 0 12 22 9 32 -4 4 -6 13 -4 23 4 14 12 18 12 26 -1 7
-11 9 -11 9 0 0 11 3 11 15 1 9 -7 18 -10 22 -6 3 3 1 6 -5 6 -7 0 -12 4 -12
9 0 4 11 6 25 3 14 -2 23 -8 20 -12 -3 -4 3 -14 13 -21 15 -13 16 -12 3 4 -9
11 -10 17 -2 17 6 0 10 5 9 11 -2 6 5 13 15 14 11 2 22 7 25 11 4 4 0 5 -9 2
-9 -4 -20 2 -27 13 -7 10 -22 19 -35 19 -46 0 -58 3 -53 17 3 7 3 13 0 13 -2
0 -7 -6 -10 -14z"/>
<path d="M1335 2030 c-4 -6 -11 -7 -17 -4 -7 4 -8 2 -4 -4 5 -8 -8 -11 -42
-11 -28 1 -55 -2 -61 -5 -6 -4 -11 -2 -11 4 0 6 -5 8 -10 5 -6 -4 -8 -11 -4
-16 3 -5 2 -9 -3 -8 -20 3 -34 -2 -28 -11 3 -6 -1 -13 -9 -16 -9 -3 -16 -12
-16 -20 0 -7 -10 -18 -22 -25 -17 -9 -20 -9 -16 2 3 8 0 19 -7 26 -10 9 -14 8
-18 -8 -3 -10 -1 -19 4 -19 5 0 9 -7 9 -15 0 -8 -7 -15 -15 -15 -9 0 -12 -6
-8 -17 4 -11 3 -14 -6 -9 -6 4 -11 4 -9 -1 4 -17 -14 -73 -23 -67 -5 3 -9 0
-9 -6 0 -6 -6 -8 -12 -5 -7 4 -4 -1 6 -9 11 -9 14 -16 8 -16 -7 0 -12 -5 -12
-11 0 -5 4 -8 9 -5 5 4 7 -3 4 -14 -3 -11 -13 -20 -22 -21 -11 0 -9 -3 6 -9
19 -8 21 -13 13 -39 -8 -29 -4 -35 21 -33 3 1 6 -6 6 -14 0 -10 -4 -11 -11 -4
-14 14 -23 13 -23 -5 0 -8 6 -15 14 -15 29 0 7 -32 -25 -36 -8 -2 -17 -5 -20
-8 -8 -8 30 -2 44 7 7 4 18 -1 25 -10 8 -9 9 -14 3 -10 -16 9 -25 -18 -11 -32
8 -8 8 -11 -2 -11 -7 0 -9 -5 -6 -10 4 -6 10 -8 14 -6 4 3 8 -1 8 -9 0 -8 -6
-16 -14 -19 -7 -3 -13 1 -13 8 0 8 -8 13 -17 11 -10 -2 -18 -4 -18 -5 0 -1
-26 -2 -57 -3 -31 -1 -56 0 -56 3 1 19 -5 21 -22 5 -18 -17 -20 -17 -14 -2 3
9 10 17 16 17 5 0 6 6 2 13 -4 6 3 3 15 -8 22 -19 23 -19 36 -2 10 14 14 15
18 4 8 -21 61 -16 65 7 2 10 0 22 -6 28 -6 6 -8 0 -7 -16 2 -15 -1 -24 -6 -20
-5 3 -9 14 -9 24 0 15 -6 19 -24 18 -14 -1 -22 -6 -20 -10 3 -4 -2 -8 -11 -8
-9 0 -13 -5 -9 -11 4 -7 -3 -6 -17 2 -13 7 -30 12 -37 10 -8 -1 -21 4 -30 11
-15 11 -15 11 -5 -3 10 -12 10 -18 0 -29 -9 -9 -9 -11 0 -6 8 4 11 -1 10 -15
-1 -11 -10 -25 -19 -30 -10 -6 -16 -14 -13 -20 4 -5 12 -6 18 -2 7 4 5 -2 -3
-12 -14 -17 -14 -18 6 -7 19 10 21 9 18 -16 l-4 -27 12 26 c10 24 15 26 57 22
25 -3 53 -7 61 -10 8 -4 18 -7 22 -7 3 -1 9 -4 13 -8 9 -9 35 2 35 14 0 6 -6
6 -14 -1 -10 -8 -16 -9 -21 -1 -3 6 -11 8 -16 5 -5 -4 -9 -2 -9 4 0 14 18 23
24 12 7 -11 56 10 56 24 0 6 4 4 9 -4 7 -10 4 -19 -7 -28 -16 -12 -16 -13 1
-7 13 5 17 1 17 -16 0 -11 4 -19 8 -16 5 3 9 -1 9 -9 0 -17 -6 -18 -26 -6 -7
5 -10 14 -6 21 6 9 3 9 -14 0 -12 -6 -19 -15 -16 -21 4 -5 10 -7 14 -4 5 2 17
-3 27 -11 10 -9 13 -13 7 -9 -7 3 -13 1 -13 -4 0 -6 6 -11 12 -11 7 0 2 -7
-10 -16 -25 -17 -30 -39 -7 -30 8 3 15 1 15 -4 0 -6 -4 -10 -10 -10 -5 0 -10
-9 -10 -19 0 -10 -7 -22 -16 -25 -10 -4 -13 -2 -7 7 11 18 13 37 3 37 -9 0
-25 -20 -25 -32 0 -18 -11 -14 -12 4 -1 12 -6 25 -11 30 -6 6 -8 -2 -6 -22 2
-20 -1 -33 -11 -36 -8 -4 -12 -11 -8 -17 3 -5 1 -7 -5 -4 -14 9 -43 -3 -36
-14 3 -5 -3 -9 -13 -9 -16 1 -15 3 4 19 19 16 20 20 7 25 -29 11 -66 7 -61 -7
3 -8 -1 -14 -9 -14 -7 0 -11 4 -9 8 3 3 -7 9 -21 12 -18 3 -24 1 -20 -9 5 -13
-5 -18 -26 -15 -4 0 -5 -7 -2 -17 5 -14 3 -14 -10 2 -13 16 -16 17 -16 4 0
-12 -6 -15 -22 -11 -19 4 -20 3 -8 -6 11 -8 12 -11 2 -11 -8 0 -12 -6 -9 -12
2 -7 0 -21 -5 -31 -7 -14 -12 -16 -23 -7 -8 6 -23 9 -34 5 -13 -4 -23 0 -30
12 -8 15 -10 12 -6 -13 3 -27 0 -31 -16 -27 -10 3 -19 12 -19 20 0 8 -5 11
-10 8 -6 -4 -8 -11 -5 -16 4 -5 -1 -9 -10 -9 -9 0 -14 -4 -11 -9 8 -12 -21
-34 -34 -26 -9 6 -15 -8 -11 -29 1 -5 -4 -4 -12 2 -11 9 -14 8 -14 -3 0 -8 4
-15 9 -15 5 0 6 -5 3 -10 -3 -6 2 -10 12 -10 11 0 14 -3 7 -8 -13 -8 -15 -44
-2 -36 5 3 5 10 2 16 -4 6 -2 8 4 5 5 -4 8 -17 6 -30 -2 -12 -2 -17 1 -11 3 7
15 10 25 7 11 -3 17 -9 14 -14 -3 -5 1 -9 9 -9 8 0 18 -7 21 -16 9 -23 7 -27
-7 -18 -7 5 -6 2 3 -6 8 -8 15 -25 14 -37 -1 -12 3 -20 7 -17 5 3 9 1 9 -3 0
-5 -10 -13 -22 -18 -13 -6 -28 -21 -34 -33 -7 -14 -14 -19 -17 -13 -3 7 -4 6
-3 -1 2 -7 9 -12 16 -10 6 1 14 -7 17 -18 3 -11 12 -20 19 -20 8 0 14 -6 14
-14 0 -7 7 -19 15 -26 12 -10 15 -9 15 4 0 10 -4 14 -10 11 -5 -3 -10 -1 -10
4 0 6 5 11 11 11 5 0 7 4 4 10 -4 6 1 7 12 3 10 -3 15 -2 10 2 -4 5 0 17 9 26
15 17 15 19 0 25 -9 3 -13 10 -10 15 3 5 1 9 -5 9 -6 0 -8 8 -5 18 2 9 -1 7
-7 -5 -13 -24 -24 -29 -33 -14 -3 5 1 11 8 14 17 7 17 47 1 47 -5 0 -3 5 5 10
12 7 12 10 1 10 -7 0 -11 6 -8 14 3 8 1 17 -6 20 -7 2 0 5 14 5 23 1 26 -2 21
-26 l-5 -28 21 25 c12 14 21 19 22 13 0 -7 -4 -13 -10 -13 -5 0 -9 -15 -8 -34
1 -28 4 -32 21 -28 18 5 18 6 3 17 -9 7 -16 18 -16 26 0 11 2 11 10 -1 5 -8
10 -11 10 -7 0 4 11 -4 24 -18 24 -26 43 -22 25 5 -14 23 -11 33 11 27 10 -3
21 0 24 7 2 6 5 3 5 -6 1 -14 5 -16 26 -8 14 5 24 6 24 2 -1 -4 0 -10 1 -14 1
-5 3 -14 4 -20 1 -7 9 -12 19 -10 11 2 15 -2 11 -12 -3 -8 -12 -12 -19 -10 -7
3 -16 1 -19 -4 -3 -5 4 -9 15 -8 11 0 24 8 29 16 8 13 10 12 10 -3 0 -10 5
-15 10 -12 6 3 10 1 10 -6 0 -7 3 -9 7 -6 3 4 -1 15 -10 25 -19 20 -13 34 9
25 8 -3 14 0 14 7 0 6 4 9 9 6 5 -3 12 2 15 11 6 14 8 14 22 -3 9 -10 13 -13
9 -6 -3 6 -3 12 2 12 14 -1 43 -27 37 -33 -10 -9 40 5 53 16 7 5 10 13 7 18
-3 5 0 9 5 9 6 0 11 -5 11 -11 0 -5 5 -7 12 -3 7 4 8 3 4 -4 -4 -7 -3 -12 3
-12 6 0 8 -7 4 -16 -6 -15 -7 -15 -19 0 -6 10 -15 13 -18 8 -5 -8 13 -22 34
-26 3 -1 11 -5 18 -9 7 -5 12 -4 12 2 0 6 -4 11 -10 11 -5 0 -10 5 -10 11 0 5
4 8 9 5 5 -3 12 1 15 10 3 8 2 12 -4 9 -6 -4 -7 1 -3 11 5 14 8 13 25 -7 11
-13 16 -18 12 -10 -5 9 -3 12 5 7 14 -9 5 -26 -15 -26 -8 0 -14 -4 -14 -9 0
-6 12 -6 29 -1 16 4 32 5 36 2 19 -19 42 -8 65 31 34 57 43 80 28 70 -18 -10
-48 -11 -54 -1 -3 4 -14 8 -25 8 -10 0 -19 5 -19 11 0 5 -4 7 -10 4 -16 -10
-11 17 7 39 10 12 5 10 -12 -5 -51 -46 -139 -51 -128 -8 5 17 3 18 -20 10 -18
-7 -27 -7 -31 2 -3 9 -5 9 -5 0 -1 -10 -7 -10 -26 -1 -32 14 -32 20 7 64 23
26 26 33 11 24 -18 -12 -23 -11 -37 2 -17 18 -8 34 117 202 90 122 99 144 94
232 -2 41 0 77 5 80 4 3 8 -2 8 -10 0 -10 6 -13 15 -10 8 4 15 2 15 -4 0 -6
-4 -12 -8 -14 -5 -1 -12 -20 -15 -42 -8 -48 -4 -44 21 21 l20 52 -35 12 c-43
14 -74 39 -108 89 -22 31 -25 45 -21 94 2 31 5 58 7 60 2 1 15 -3 29 -11 14
-7 19 -13 12 -13 -7 0 -10 -4 -7 -10 3 -5 15 -10 26 -10 15 0 19 7 19 33 0 17
-7 41 -15 51 -18 24 -20 60 -3 50 6 -4 8 -3 4 4 -3 6 12 22 36 37 28 17 34 24
18 20 -18 -5 -22 -4 -15 4 6 6 26 13 45 17 26 4 31 3 20 -5 -19 -13 -9 -14 23
-2 18 7 31 5 48 -7 l24 -16 -20 23 c-11 12 -27 20 -36 18 -10 -3 -33 -1 -51 3
l-33 8 35 2 c19 2 53 2 75 2 29 -1 35 2 25 9 -17 11 71 2 106 -11 11 -5 25 -5
30 -2 14 10 -17 37 -44 39 -12 0 -34 1 -48 2 -22 1 -25 3 -14 16 7 8 10 15 7
15 -3 0 -9 -5 -12 -10z"/>
<path d="M1616 1954 c-3 -9 -11 -12 -16 -9 -6 4 -9 1 -8 -6 2 -6 -3 -14 -9
-16 -7 -3 -13 0 -13 7 0 6 -5 8 -10 5 -6 -4 -17 -2 -24 4 -9 8 -13 7 -13 -4 0
-8 3 -13 5 -10 3 3 16 -4 28 -16 15 -14 31 -20 44 -16 11 3 18 1 15 -3 -3 -4
9 -13 27 -19 24 -8 29 -14 20 -23 -8 -8 -19 -8 -41 2 -17 6 -31 11 -33 9 -2
-1 -13 3 -24 9 -38 20 -34 1 12 -64 25 -35 46 -72 47 -82 1 -21 28 -24 40 -4
5 8 0 20 -15 33 -13 11 -16 17 -8 14 8 -4 -1 7 -20 24 -19 17 -38 31 -42 31
-5 0 -8 7 -8 15 0 8 -5 15 -12 15 -6 0 -8 3 -5 6 4 4 14 1 23 -7 10 -8 19 -13
21 -11 9 6 33 1 33 -9 0 -5 -4 -7 -10 -4 -5 3 -10 4 -10 1 0 -6 65 -46 76 -46
5 0 -2 7 -14 16 -12 8 -22 20 -22 26 0 6 9 3 20 -7 11 -10 20 -13 20 -8 0 6
-8 14 -17 17 -12 5 -13 10 -5 18 13 13 46 2 36 -13 -4 -7 0 -9 12 -5 19 5 47
-5 45 -18 -3 -18 0 -20 10 -6 9 12 10 12 5 -4 -5 -13 -2 -17 8 -13 16 6 40
-16 29 -26 -9 -10 -25 -9 -19 1 3 5 -4 8 -14 7 -22 -1 -39 -14 -22 -16 26 -3
31 -4 38 -11 11 -11 26 -10 19 1 -3 5 0 13 6 17 6 4 16 -1 21 -10 5 -9 13 -14
17 -11 5 2 8 -5 7 -17 -1 -14 9 -27 28 -37 16 -9 30 -24 32 -33 2 -14 -1 -15
-16 -5 -10 6 -17 14 -14 18 3 6 -45 30 -68 33 -3 1 -10 5 -15 9 -4 5 -3 7 2 5
6 -2 11 2 12 7 1 6 -7 9 -18 7 -11 -2 -38 10 -61 27 -37 27 -43 29 -51 15 -10
-18 6 -34 34 -34 10 0 30 -15 46 -33 18 -20 38 -33 50 -32 14 1 19 -3 16 -12
-4 -10 -9 -11 -19 -2 -11 9 -14 8 -14 -3 0 -7 25 -38 55 -68 52 -51 70 -79 43
-65 -7 4 -1 -5 14 -18 15 -14 24 -28 21 -31 -3 -3 1 -8 10 -11 9 -4 14 -16 12
-30 -1 -14 1 -23 5 -20 4 2 14 -11 23 -30 10 -21 12 -35 6 -35 -6 0 -7 -6 -2
-12 4 -7 9 -21 10 -32 3 -16 1 -17 -12 -6 -13 11 -14 10 -9 -4 3 -9 10 -16 16
-16 5 0 6 -4 3 -10 -3 -5 1 -23 10 -41 9 -17 15 -32 13 -34 -2 -2 -19 24 -37
58 -18 34 -31 53 -28 42 10 -45 12 -50 22 -58 6 -5 4 -7 -5 -4 -8 2 -15 10
-15 18 -1 8 -7 13 -14 11 -9 -2 -12 4 -8 19 3 11 3 18 0 15 -9 -8 -44 25 -37
35 3 5 -3 6 -13 2 -10 -3 -15 -3 -11 2 4 4 0 14 -10 22 -16 12 -16 13 3 7 18
-5 18 -4 2 6 -9 6 -22 8 -27 5 -6 -3 -10 -1 -10 4 0 6 6 11 13 11 8 0 7 4 -3
10 -8 5 -11 10 -6 10 5 0 -3 11 -19 24 -18 16 -23 26 -16 31 9 5 9 10 0 21 -6
7 -16 11 -22 7 -7 -4 -8 1 -4 13 7 18 6 18 -6 2 -8 -10 -18 -14 -22 -10 -4 4
-2 -3 4 -15 6 -13 17 -23 24 -23 7 0 6 -4 -3 -10 -10 -6 -11 -10 -2 -10 6 0
12 -5 12 -12 0 -6 -13 1 -30 17 -16 15 -27 32 -25 36 7 10 -24 41 -35 34 -4
-3 -13 2 -20 10 -7 8 -16 12 -21 9 -5 -3 -9 3 -10 13 0 10 -3 13 -6 6 -5 -14
-33 -18 -33 -5 0 5 -7 9 -15 9 -9 0 -14 -6 -11 -13 3 -8 0 -16 -5 -20 -11 -7
-6 -10 72 -53 99 -54 218 -142 269 -199 30 -33 58 -58 64 -55 5 3 6 1 2 -5 -4
-6 3 -24 14 -40 12 -16 25 -54 29 -85 7 -51 5 -62 -20 -111 -15 -30 -25 -57
-21 -62 4 -4 2 -5 -4 -1 -5 3 -27 -12 -48 -34 -48 -48 -98 -64 -158 -48 -96
24 -159 31 -278 29 -69 -1 -129 -5 -133 -9 -4 -4 -11 -30 -16 -58 -4 -28 -18
-68 -30 -89 -18 -30 -19 -35 -5 -23 16 12 17 12 12 -2 -4 -10 -1 -16 8 -16 8
0 14 5 14 10 0 5 7 6 16 3 9 -3 12 -2 9 5 -4 6 -13 8 -20 5 -7 -2 -16 1 -19 9
-3 10 0 12 11 8 11 -4 14 -2 9 5 -5 8 1 12 16 13 17 1 18 3 6 6 -20 5 -22 12
-8 33 8 13 10 13 10 -2 0 -15 4 -16 25 -6 14 6 25 15 25 20 0 4 7 8 15 8 13 0
14 -4 5 -22 -10 -21 -10 -21 3 -6 8 10 17 15 20 11 12 -11 8 7 -8 37 -9 17
-11 30 -6 30 5 0 12 -11 15 -25 4 -14 13 -25 22 -25 11 0 12 4 4 19 -14 26
-13 31 5 25 8 -4 12 -10 9 -15 -3 -5 0 -9 5 -9 6 0 11 6 11 13 0 6 11 12 25
12 14 0 25 -4 25 -9 0 -4 7 -5 16 -2 8 3 12 2 9 -4 -3 -6 -16 -10 -28 -11 -19
0 -18 -2 7 -11 21 -8 30 -7 36 2 6 9 12 10 26 1 11 -6 13 -11 6 -11 -7 0 -11
-4 -8 -9 4 -5 -4 -7 -16 -4 -13 3 -19 2 -15 -2 12 -14 41 -15 49 -2 5 7 8 3 8
-11 0 -13 -4 -21 -9 -17 -5 3 -13 0 -17 -6 -4 -8 -3 -9 4 -5 8 4 12 0 12 -10
0 -14 3 -15 12 -6 14 14 32 16 23 2 -3 -6 1 -7 10 -4 11 5 13 10 5 19 -9 11
-4 12 22 9 25 -4 29 -2 18 5 -13 9 -13 11 1 11 19 0 31 -34 18 -47 -13 -13 22
-13 38 -1 7 6 10 15 6 22 -3 6 2 3 13 -6 10 -9 24 -17 29 -18 6 -1 9 -6 8 -10
-2 -5 7 -7 19 -5 12 3 28 -1 37 -8 8 -6 12 -7 9 -2 -4 6 2 17 14 24 11 7 17 8
14 2 -4 -5 -2 -12 3 -15 13 -8 42 4 35 15 -3 5 0 9 5 9 6 0 11 -7 11 -15 0 -8
-7 -15 -15 -15 -8 0 -15 -5 -15 -11 0 -7 14 -9 38 -5 20 3 39 5 41 6 2 0 1 7
-3 15 -8 22 2 18 15 -6 7 -13 7 -19 1 -15 -6 3 -13 2 -16 -3 -7 -11 13 -9 33
3 11 7 11 10 0 17 -10 6 -10 9 -2 9 18 0 26 -19 13 -35 -7 -9 -8 -15 0 -20 5
-3 11 -4 11 -1 4 17 6 23 13 44 4 12 12 22 17 22 6 0 8 4 5 8 -2 4 -1 14 5 22
7 12 9 11 9 -5 0 -15 2 -17 9 -6 7 11 15 11 40 3 29 -10 31 -10 31 14 0 15 4
23 10 19 6 -4 8 -11 4 -16 -3 -5 0 -16 6 -24 6 -8 9 -18 7 -22 -3 -5 3 -9 13
-9 10 0 16 4 14 8 -3 4 6 8 20 8 33 0 40 13 14 29 -11 7 -18 9 -15 4 3 -5 -3
-14 -14 -21 -11 -7 -19 -8 -19 -2 0 5 5 10 10 10 6 0 10 7 10 17 0 14 -2 14
-21 -2 -20 -19 -20 -19 -10 9 7 17 7 25 1 21 -6 -3 -10 -1 -10 4 0 14 17 14
25 1 3 -5 13 -6 22 -3 9 4 14 2 10 -3 -3 -5 3 -10 13 -10 10 0 16 4 14 8 -3 5
3 11 13 15 10 4 21 11 25 17 6 8 8 8 8 0 0 -7 11 -9 26 -6 21 4 25 2 19 -9 -8
-12 -6 -12 8 0 11 9 17 9 17 2 0 -6 -9 -16 -19 -23 -18 -11 -18 -12 5 -31 22
-17 23 -20 9 -40 -23 -33 -19 -58 4 -27 11 13 18 27 17 30 -2 3 6 13 16 23 18
17 18 17 11 -10 -4 -16 -7 -40 -6 -55 1 -16 -2 -28 -7 -28 -6 0 -10 -5 -10
-11 0 -5 5 -7 10 -4 6 3 10 1 10 -4 0 -6 -4 -11 -10 -11 -12 0 -9 -22 4 -32 6
-4 18 -2 28 3 15 8 18 6 18 -11 0 -12 5 -18 10 -15 6 3 10 0 10 -7 0 -10 3 -9
11 2 8 11 12 12 16 2 2 -6 10 -9 15 -6 17 11 59 13 53 4 -3 -5 -13 -7 -23 -4
-13 5 -14 3 -4 -4 15 -10 84 9 89 25 2 6 -20 11 -49 12 -85 4 -133 15 -132 31
1 8 4 30 8 48 5 21 4 32 -4 32 -6 0 -9 -4 -6 -9 3 -5 -1 -11 -9 -15 -9 -3 -15
0 -15 9 0 15 35 30 50 20 5 -3 10 0 10 9 0 26 50 76 76 76 13 0 24 4 24 9 0 5
11 8 25 6 25 -2 34 9 15 20 -5 3 -10 12 -10 18 0 7 4 6 10 -3 7 -12 9 -10 8 7
-1 11 -7 19 -14 16 -7 -2 -15 0 -19 6 -3 7 2 11 14 11 13 0 18 6 16 18 -1 9
-9 15 -16 14 -8 -2 -27 -5 -44 -7 -16 -2 -34 -4 -38 -4 -5 -1 -5 -6 -1 -13 4
-7 3 -8 -4 -4 -14 9 -15 -3 -2 -24 7 -12 11 -10 18 10 9 23 9 23 14 2 4 -15 1
-23 -14 -28 -19 -6 -19 -6 -1 -27 18 -22 18 -22 -3 -4 -11 9 -23 14 -27 11 -3
-3 -13 6 -22 20 -10 14 -22 26 -29 26 -6 0 -4 -5 4 -11 11 -8 12 -12 3 -16 -7
-2 -13 -11 -13 -19 0 -8 -5 -14 -11 -14 -5 0 -8 4 -5 9 3 5 -1 14 -8 20 -11 9
-16 9 -22 0 -4 -7 -3 -9 2 -6 6 3 10 -3 11 -13 1 -11 -3 -22 -8 -26 -6 -3 -9
2 -7 12 2 12 -2 18 -10 16 -9 -2 -11 2 -5 10 4 7 8 18 8 23 0 6 8 9 18 7 9 -2
20 4 23 11 3 9 13 13 24 10 30 -8 55 4 41 20 -8 10 -6 14 7 13 53 0 73 5 66
15 -5 8 1 10 19 7 29 -6 43 12 24 31 -9 9 -9 14 1 20 14 8 14 111 0 111 -4 0
-16 -10 -28 -22 -23 -25 -27 -12 -5 18 8 10 15 23 15 29 0 5 -7 -1 -16 -13
-12 -18 -19 -21 -30 -11 -12 9 -11 15 6 39 11 15 16 30 12 34 -3 4 6 3 21 -3
26 -10 27 -9 17 9 -6 11 -13 20 -16 20 -3 0 -2 -4 1 -10 9 -15 -12 -12 -27 4
-11 11 -18 11 -31 1 -9 -6 -13 -15 -9 -20 4 -4 -3 -4 -15 -1 -18 6 -43 -9 -32
-18 9 -7 69 16 64 24 -4 6 -1 10 4 10 6 0 11 -8 11 -18 0 -12 -9 -18 -26 -20
-31 -2 -68 -21 -44 -22 13 0 13 -1 0 -10 -12 -7 -10 -9 7 -7 12 0 21 4 20 7
-1 3 1 6 6 8 4 1 6 0 5 -2 -2 -2 5 -13 14 -23 15 -17 16 -22 5 -38 -13 -16
-14 -17 -20 -1 -5 12 -3 15 6 10 8 -5 8 -2 -2 9 -20 25 -29 13 -22 -30 4 -23
12 -38 20 -38 8 0 16 -7 18 -15 4 -13 3 -13 -6 0 -6 8 -11 11 -11 6 0 -6 -5
-5 -12 2 -15 15 -32 16 -23 2 3 -5 -1 -10 -10 -10 -9 0 -14 4 -11 9 3 4 -6 6
-19 3 -31 -6 -33 -22 -2 -21 28 0 87 -8 91 -12 11 -12 16 -49 7 -49 -6 0 -11
7 -11 15 0 8 -4 15 -10 15 -5 0 -7 -8 -3 -18 3 -9 3 -14 -1 -10 -4 3 -9 14
-10 24 -2 10 -12 18 -26 19 -22 2 -22 1 -4 -13 18 -13 18 -14 -3 -7 -16 4 -23
2 -23 -7 0 -10 -3 -9 -9 2 -6 8 -8 17 -6 21 7 10 -42 32 -59 26 -8 -3 -17 -1
-20 6 -3 8 -5 6 -5 -3 -1 -9 -6 -5 -14 10 -8 16 -21 25 -34 24 -15 -1 -21 4
-20 16 1 12 8 17 19 15 10 -2 20 1 24 7 4 6 10 5 15 -3 5 -8 9 -9 9 -3 0 10
-32 44 -34 36 -1 -2 -9 -1 -18 2 -10 3 -25 8 -33 11 -11 3 -14 13 -11 31 4 19
0 27 -12 31 -10 2 -23 12 -29 22 -9 14 -7 17 12 17 15 0 21 -5 18 -13 -3 -7 0
-13 6 -13 6 0 11 6 11 13 0 8 6 14 14 14 16 0 17 -18 1 -29 -6 -5 -6 -8 2 -8
14 0 43 27 43 41 0 9 -10 12 -42 12 -10 0 -15 4 -12 8 3 5 10 7 15 4 5 -4 9
-2 9 4 0 5 -9 9 -20 8 -11 -1 -20 -7 -20 -14 0 -7 -7 -13 -15 -13 -8 0 -15 5
-15 11 0 5 5 7 10 4 14 -8 13 -3 -6 34 -14 28 -18 30 -32 19 -15 -12 -16 -11
-3 5 15 19 41 23 41 6 0 -5 5 -7 10 -4 13 8 13 -8 0 -21 -7 -7 -6 -11 4 -11 8
0 13 3 11 7 -2 3 0 12 6 20 6 10 9 11 9 3 0 -7 4 -13 10 -13 5 0 7 8 3 18 -3
9 -3 14 1 10 8 -7 14 -31 15 -62 1 -25 14 -13 17 17 1 12 3 25 3 29 1 4 8 5
16 1 10 -3 15 -1 13 7 -2 7 4 15 12 18 8 2 12 1 8 -3 -4 -5 -3 -14 3 -22 9
-10 7 -13 -9 -13 -25 0 -37 -16 -21 -26 7 -4 9 -3 6 3 -3 5 0 10 8 10 11 0 12
-3 3 -14 -6 -8 -18 -11 -26 -8 -11 4 -12 2 -4 -8 7 -8 7 -18 2 -27 -5 -9 -5
-19 2 -28 9 -11 13 -11 19 0 7 10 9 10 9 -1 0 -11 6 -9 20 7 20 22 28 58 10
47 -6 -4 -8 -10 -6 -14 3 -4 -1 -8 -9 -8 -10 0 -12 4 -5 12 5 7 7 14 4 17 -13
14 26 15 43 2 10 -9 12 -13 5 -9 -9 5 -12 -2 -9 -29 2 -20 7 -39 12 -43 4 -5
5 5 3 20 -5 24 -3 28 13 24 11 -3 22 -1 25 4 3 5 1 9 -5 9 -5 0 -12 8 -16 19
-3 10 -20 23 -38 29 -29 11 -30 11 -4 8 23 -3 25 -1 15 12 -11 13 -10 15 5 9
12 -5 16 -3 11 4 -4 7 -1 10 7 7 8 -3 13 -11 11 -17 -2 -9 3 -9 18 -1 11 6 18
16 14 22 -4 7 -9 6 -15 -3 -8 -13 -13 -5 -10 15 1 5 -15 -1 -35 -13 -26 -16
-40 -19 -47 -12 -8 8 -6 11 6 11 15 0 16 2 5 14 -15 16 -40 15 -46 -2 -6 -20
-20 -13 -26 13 -7 27 -23 34 -23 10 0 -8 4 -12 9 -9 4 3 8 1 8 -5 0 -5 -8 -9
-17 -9 -10 0 -25 -2 -34 -6 -9 -4 -21 0 -30 10 -13 15 -11 17 18 12 28 -4 31
-2 22 13 -5 10 -6 19 -1 22 4 2 2 2 -5 1 -6 -2 -17 4 -24 12 -7 8 -18 13 -25
10 -7 -3 -16 -1 -19 4 -12 19 -25 10 -25 -16 0 -17 4 -23 13 -18 9 6 9 4 1 -7
-6 -8 -13 -20 -16 -28 -3 -10 -7 -9 -18 5 -9 10 -10 15 -3 10 9 -5 12 0 11 18
-3 28 -8 32 -25 15 -7 -7 -12 -5 -17 6 -4 12 -2 16 7 12 18 -7 70 27 60 38 -5
4 -2 5 5 1 7 -4 26 -1 42 8 17 8 28 11 26 7 -3 -4 -1 -13 5 -21 7 -13 9 -13 9
0 1 12 3 11 11 -2 5 -10 17 -18 24 -18 18 0 20 17 3 22 -7 3 -5 7 6 11 10 4
15 3 11 -3 -3 -6 -1 -10 4 -10 6 0 11 6 11 13 0 8 4 7 10 -3 5 -8 7 -24 4 -35
-6 -20 -6 -20 9 0 11 15 12 22 4 27 -7 5 -2 8 13 8 14 0 32 -4 40 -10 9 -6 17
-5 22 3 6 9 8 8 9 -3 0 -8 2 -28 3 -43 2 -15 -2 -30 -7 -34 -6 -3 -7 -1 -4 4
4 6 0 14 -9 17 -8 3 -12 2 -9 -4 4 -6 -7 -10 -26 -10 -31 0 -32 -1 -13 -15 10
-8 24 -14 29 -15 6 0 3 5 -5 10 -11 7 -3 8 26 6 39 -4 40 -3 38 25 -2 25 0 28
12 18 11 -9 14 -8 14 5 0 9 -5 16 -10 16 -6 0 -5 6 2 14 16 17 31 9 24 -13 -5
-13 -3 -12 8 2 12 16 18 17 37 7 19 -10 21 -10 16 3 -4 11 0 13 14 10 19 -5
19 -6 2 -20 -17 -14 -17 -14 0 -9 10 3 21 6 23 6 11 0 3 119 -8 123 -10 4 -9
8 2 16 12 8 11 10 -7 9 -11 -1 -19 -7 -16 -14 6 -16 -30 -24 -44 -9 -7 7 -9
16 -6 19 4 3 1 6 -5 6 -7 0 -12 -4 -12 -10 0 -5 -5 -10 -11 -10 -6 0 -9 6 -6
13 2 6 0 23 -5 37 -9 24 -10 24 -21 5 -6 -11 -12 -27 -12 -35 -1 -28 -16 -40
-45 -36 -17 2 -30 -1 -30 -6 0 -5 -6 -3 -14 4 -8 7 -11 17 -8 22 3 5 0 6 -6 2
-5 -3 -12 -1 -14 6 -3 8 -7 6 -11 -5 -3 -9 -1 -19 5 -23 7 -5 8 -2 3 7 -8 12
-6 12 8 0 22 -18 21 -21 -5 -16 -12 3 -29 -1 -37 -7 -13 -10 -14 -10 -3 2 19
22 14 32 -10 19 -22 -11 -22 -11 -6 7 14 16 14 21 2 32 -9 9 -14 9 -14 2 0 -7
-6 -10 -12 -7 -7 2 -21 0 -30 -5 -12 -6 -18 -5 -18 2 0 7 -6 7 -21 0 -11 -7
-23 -9 -26 -7 -6 7 33 28 44 25 4 -2 9 0 11 5 1 4 -1 8 -5 9 -5 0 -14 8 -21
17 -10 13 -12 14 -10 1 2 -8 -3 -14 -10 -12 -8 1 -11 -2 -7 -8 11 -18 -5 -32
-23 -18 -14 10 -15 10 -4 -2 16 -19 15 -30 -3 -30 -8 0 -15 -8 -16 -17 0 -11
-5 -7 -11 10 -7 20 -15 27 -27 23 -12 -5 -11 -2 3 9 11 8 23 15 28 15 4 0 8 5
8 11 0 5 -10 3 -22 -5 -28 -20 -34 -20 -42 0 -3 8 -2 12 3 9 5 -3 12 -1 16 5
4 6 12 8 18 4 7 -3 4 1 -5 9 -41 33 -3 25 42 -10 12 -8 18 -8 27 2 9 10 10 16
2 21 -6 3 -14 2 -18 -4 -4 -6 -16 0 -31 16 l-25 27 26 -17 c31 -20 38 -16 32
17 -3 15 -10 22 -19 18 -8 -3 -11 -9 -8 -15 3 -5 -3 -4 -14 3 -17 10 -25 10
-47 -5 -15 -10 -29 -15 -33 -12 -3 3 -1 6 5 6 6 0 9 9 6 20 -3 11 -9 17 -14
14 -5 -3 -7 -9 -4 -14 3 -5 -3 -18 -13 -28 -10 -10 -17 -23 -15 -29 2 -6 -3
-13 -11 -16 -10 -4 -13 -1 -10 7 3 7 -2 18 -10 25 -15 13 -11 45 5 35 13 -8
11 10 -3 24 -9 9 -9 12 -1 12 7 0 15 -4 18 -10 3 -5 11 -10 17 -10 6 0 3 9 -7
20 -23 26 -34 25 -44 -2 -6 -16 -17 -23 -39 -24 -23 -1 -29 2 -24 14 4 11 7
12 10 4 6 -18 22 -14 22 6 0 15 2 15 11 2 9 -13 10 -13 6 0 -2 9 -15 15 -33
15 -16 0 -34 3 -41 8 -6 4 -13 2 -15 -5 -3 -7 -10 -8 -17 -4 -10 7 -6 14 14
32 16 13 22 24 15 24 -9 0 -10 4 -2 13 8 10 5 13 -14 15 -22 2 -23 0 -12 -18
10 -15 10 -22 0 -32 -6 -6 -15 -8 -19 -4 -4 4 -1 11 7 16 13 8 13 12 -2 26
-14 14 -20 15 -33 4 -19 -15 -30 -7 -21 16 3 9 13 14 21 10 8 -3 17 0 21 6 4
7 3 8 -4 4 -16 -10 -15 6 1 24 6 8 3 7 -9 -3 -11 -9 -24 -14 -27 -10 -4 3 -7
2 -7 -3 0 -5 -13 -9 -29 -9 -16 0 -29 2 -29 5 1 3 -2 13 -7 23 -6 14 -10 15
-22 6 -9 -9 -17 -9 -24 -2 -7 7 -4 16 12 27 19 13 21 18 10 28 -11 10 -12 10
-7 1 4 -7 3 -13 -3 -13 -5 0 -12 6 -15 13 -3 6 -3 1 0 -12 5 -19 3 -23 -10
-18 -9 4 -16 2 -16 -3 0 -6 -4 -10 -10 -10 -5 0 -7 7 -4 15 4 8 1 15 -6 15 -6
0 -8 -4 -5 -10 3 -5 1 -10 -4 -10 -6 0 -11 4 -11 10 0 5 -11 12 -25 16 -14 3
-25 13 -25 21 0 9 -6 13 -15 9 -13 -5 -14 -2 -5 15 9 16 14 18 26 8 21 -17 24
-7 3 13 -15 14 -18 14 -23 2z m272 -345 c-3 16 49 20 72 6 10 -6 9 -11 -5 -22
-11 -7 -13 -13 -6 -13 7 0 10 -4 7 -8 -6 -10 11 -38 19 -31 3 4 7 16 10 27 3
16 0 19 -13 15 -15 -6 -15 -5 -4 10 12 14 16 14 28 2 8 -7 23 -17 34 -20 11
-3 20 -9 21 -13 0 -4 2 -15 4 -25 2 -9 -1 -15 -6 -11 -5 3 -6 11 -2 17 3 7 -3
4 -14 -6 -11 -9 -23 -14 -27 -10 -4 5 -6 4 -4 -2 2 -5 -1 -10 -7 -10 -5 0 -8
5 -7 10 2 6 0 7 -4 2 -4 -4 -16 0 -26 10 -24 22 -24 -1 1 -26 11 -11 22 -17
25 -14 2 3 18 -25 35 -61 16 -36 35 -66 41 -66 6 0 8 -5 5 -10 -3 -6 0 -13 9
-16 8 -3 13 -14 11 -25 -2 -10 1 -18 8 -16 6 1 13 -9 15 -23 3 -25 3 -25 -22
5 -14 17 -23 36 -21 43 4 11 -15 17 -38 13 -5 -1 -6 3 -3 8 3 5 -3 20 -14 33
-13 17 -16 28 -9 35 8 8 7 13 -2 18 -8 5 -10 4 -5 -3 4 -8 2 -10 -8 -6 -8 3
-12 12 -9 20 3 7 -9 33 -26 56 -18 24 -27 44 -21 46 11 4 14 23 3 20 -16 -5
-72 36 -77 56 -5 19 -3 18 15 -4 11 -14 18 -19 17 -11z m151 -150 c16 -22 33
-40 38 -40 15 -1 33 -21 26 -32 -3 -5 -1 -7 4 -4 6 4 16 0 23 -8 17 -20 31
-19 23 3 -3 9 7 -1 23 -23 47 -66 81 -175 54 -175 -5 0 -10 -5 -10 -11 0 -6 6
-9 14 -6 10 4 13 -5 11 -35 -2 -38 26 -143 36 -134 2 2 5 -13 6 -34 1 -22 -2
-42 -8 -45 -6 -4 -8 4 -4 22 5 19 4 24 -3 14 -7 -10 -13 -5 -22 23 -6 20 -16
36 -20 36 -5 0 -7 7 -3 16 5 13 7 13 14 2 12 -18 11 9 -1 37 -7 16 -9 17 -9 3
-1 -9 -5 -20 -11 -23 -5 -3 -7 0 -5 7 7 19 -20 94 -33 91 -6 -1 -13 11 -17 27
-4 17 -10 28 -13 26 -4 -2 -7 12 -7 32 0 21 -6 45 -15 54 -8 9 -26 39 -39 65
-14 26 -37 66 -51 88 -39 60 -42 65 -36 65 3 0 19 -18 35 -41z m37 -221 c3
-11 17 -23 31 -29 16 -6 23 -15 20 -24 -4 -10 -1 -12 11 -8 9 3 14 3 10 -2 -4
-4 -2 -15 4 -23 14 -16 20 -75 8 -67 -4 3 -11 -2 -14 -11 -10 -25 -7 -74 4
-74 7 0 9 15 6 38 -6 35 -5 36 4 7 6 -16 8 -38 6 -48 -2 -10 -1 -31 4 -48 5
-18 5 -27 -1 -24 -5 4 -9 16 -9 28 0 35 -21 5 -35 -50 -9 -34 -18 -49 -31 -51
-16 -3 -17 -1 -4 7 8 6 11 11 5 11 -5 0 -3 4 5 10 11 7 12 13 2 32 -7 13 -13
71 -15 130 -1 60 -5 108 -8 108 -13 0 -30 53 -19 64 5 5 10 15 10 21 0 5 -4 4
-9 -3 -6 -11 -9 -9 -13 5 -7 26 20 26 28 1z"/>
<path d="M553 1668 c3 -9 3 -19 -1 -21 -4 -2 -1 -2 6 -1 6 2 12 -1 12 -6 0 -6
-4 -10 -9 -10 -5 0 -17 -3 -27 -7 -12 -4 -15 -3 -10 5 4 7 2 12 -6 12 -10 0
-10 2 1 9 7 5 9 11 5 13 -5 3 -18 -3 -29 -14 -17 -16 -17 -18 -2 -12 12 4 16
2 12 -8 -6 -15 -35 -21 -35 -8 0 4 -34 6 -75 5 -61 -2 -77 1 -85 14 -8 14 -9
14 -15 -1 -4 -10 -11 -18 -17 -18 -5 0 -6 5 -2 11 4 7 -1 7 -16 -1 -13 -7 -20
-8 -16 -2 3 6 2 14 -4 17 -6 4 -9 1 -8 -7 2 -7 -3 -12 -9 -11 -7 2 -12 -2 -10
-9 1 -7 -9 -13 -23 -13 -32 -1 -76 -30 -61 -40 6 -3 8 -12 5 -18 -4 -7 -4 -9
0 -5 4 3 21 2 38 -4 22 -8 26 -13 16 -19 -7 -5 -8 -9 -3 -9 6 0 16 5 22 11 13
13 83 -16 83 -35 0 -6 4 -4 9 4 6 8 7 19 3 25 -3 5 1 4 10 -3 10 -8 17 -9 20
-3 5 15 29 -3 32 -24 1 -10 13 -22 25 -27 14 -5 20 -4 16 2 -3 6 -14 10 -23
10 -15 1 -15 2 2 15 10 8 22 12 26 10 4 -3 15 4 25 15 10 11 23 20 29 20 6 0
4 -5 -4 -10 -13 -8 -12 -10 3 -10 12 0 17 -8 18 -27 0 -24 2 -25 8 -9 5 14 10
16 15 8 4 -7 12 -10 17 -6 5 3 1 13 -8 22 -10 9 -14 14 -9 10 14 -11 28 -10
21 2 -3 6 0 10 8 10 8 0 20 7 27 15 7 9 19 14 26 11 16 -6 26 32 10 42 -19 11
-24 34 -14 62 5 13 6 21 2 17 -4 -4 -14 -1 -22 6 -13 10 -15 9 -9 -5z"/>
<path d="M1258 1512 c-10 -2 -18 -8 -18 -13 0 -6 4 -8 9 -5 5 3 23 3 40 0 25
-5 29 -9 20 -20 -6 -7 -8 -23 -5 -36 3 -13 0 -9 -9 9 -17 37 -31 48 -41 32 -4
-7 -3 -9 3 -6 6 4 14 0 17 -9 3 -8 2 -12 -4 -9 -6 4 -10 -17 -10 -55 0 -53 -5
-69 -40 -125 -23 -39 -37 -73 -34 -83 4 -12 3 -14 -3 -4 -8 10 -17 4 -39 -25
-34 -45 -102 -113 -129 -130 -11 -7 10 1 47 18 36 17 76 31 89 32 22 1 92 80
120 136 8 14 31 57 52 94 33 58 36 70 24 82 -8 8 -18 11 -22 7 -4 -4 -6 0 -4
8 1 8 -2 24 -6 34 -6 13 -3 23 9 31 11 9 13 15 6 20 -5 3 -8 11 -4 16 5 9 -28
9 -68 1z"/>
<path d="M117 880 c-6 -21 -9 -22 -17 -10 -8 13 -10 12 -10 -2 0 -10 5 -18 10
-18 6 0 10 -5 10 -11 0 -5 -5 -7 -10 -4 -6 4 -9 1 -8 -6 3 -15 -26 -18 -59 -7
-18 6 -21 4 -16 -9 4 -11 3 -14 -5 -9 -8 5 -12 -5 -12 -33 0 -49 8 -71 24 -65
6 2 28 6 48 7 32 3 36 1 28 -14 -7 -12 -5 -19 6 -23 8 -3 13 -2 10 3 -8 12 21
34 34 26 5 -3 10 -2 10 3 0 6 10 9 23 9 12 -1 33 3 46 7 18 6 22 5 16 -5 -5
-8 -1 -7 11 3 26 22 66 26 82 8 11 -13 12 -12 6 9 -4 16 -3 21 5 17 6 -4 11
-2 11 4 0 6 -6 10 -12 8 -7 -1 -23 4 -36 11 -25 13 -42 18 -107 26 -22 4 -49
8 -60 10 -11 2 -23 4 -26 4 -4 1 -4 29 0 50 1 2 9 -3 19 -10 15 -12 16 -12 6
1 -6 8 -13 22 -16 30 -3 10 -7 6 -11 -10z"/>
<path d="M460 699 c12 -9 11 -10 -7 -6 -12 3 -22 2 -21 -2 3 -27 -5 -41 -23
-41 -11 0 -18 4 -14 9 7 12 -24 43 -36 36 -5 -4 -14 -16 -19 -28 -9 -19 -9
-20 2 -7 13 16 38 21 38 8 0 -32 0 -33 -9 -19 -6 9 -11 10 -15 2 -4 -6 -14
-11 -23 -11 -9 0 -21 -7 -28 -17 -9 -13 -14 -13 -20 -3 -5 8 -4 11 1 7 6 -3
10 2 11 12 1 9 -7 23 -18 29 -12 8 -19 8 -19 2 0 -6 7 -13 15 -16 12 -5 13 -9
4 -20 -9 -11 -15 -11 -25 -3 -10 8 -14 8 -14 0 0 -6 5 -11 10 -11 6 0 10 -5
10 -11 0 -5 -4 -7 -10 -4 -5 3 -10 -1 -10 -9 0 -20 5 -20 24 0 15 14 16 14 16
0 0 -9 -7 -16 -15 -16 -8 0 -15 -9 -15 -21 0 -13 -4 -18 -12 -13 -7 4 -8 3 -4
-5 4 -6 3 -17 -2 -24 -10 -12 -12 -18 -12 -38 0 -5 -4 -8 -8 -5 -5 3 -9 -1 -9
-9 0 -8 2 -13 4 -11 2 2 27 -2 56 -10 28 -7 55 -10 60 -5 4 4 -11 11 -34 15
-57 9 -63 14 -44 42 8 13 12 24 9 24 -4 0 1 9 11 20 10 11 28 20 39 20 12 0
28 5 36 11 11 8 7 9 -18 5 -27 -5 -30 -3 -20 8 7 8 16 12 21 9 4 -2 7 0 7 5 0
14 71 43 91 37 14 -5 19 -16 19 -43 0 -26 3 -33 9 -23 5 8 8 27 6 42 -3 21 1
28 17 32 23 6 58 -8 58 -23 0 -6 6 -10 13 -10 7 0 26 -13 42 -30 31 -32 30
-35 -9 -20 -14 5 -26 7 -26 4 0 -3 14 -10 30 -16 43 -14 80 -88 45 -88 -8 0
-15 -3 -15 -8 0 -4 -20 -6 -45 -4 -25 2 -45 0 -45 -4 0 -8 30 -9 107 -5 6 1
15 10 18 22 5 14 13 19 25 16 10 -3 21 1 24 9 3 8 0 11 -10 7 -10 -4 -14 2
-14 22 0 14 4 24 9 21 5 -4 7 4 4 16 -4 19 -3 20 7 8 9 -12 11 -12 8 -1 -2 8
-12 15 -21 17 -9 1 -15 -1 -13 -5 3 -4 2 -12 -2 -18 -5 -7 -11 -3 -19 13 -7
16 -7 22 -1 17 7 -3 8 -1 4 5 -4 7 -15 12 -24 12 -18 1 -59 27 -54 35 9 17 -2
24 -30 18 -24 -5 -29 -3 -23 7 5 8 4 11 -2 7 -6 -4 -16 0 -23 8 -7 8 -9 15 -4
15 12 0 -19 20 -31 20 -5 0 -3 -5 5 -11z"/>
<path d="M2128 464 c-2 -1 -39 -3 -83 -5 -83 -3 -135 -14 -135 -30 0 -16 54
-24 160 -24 205 1 262 29 108 54 -26 5 -49 7 -50 5z"/>
<path d="M2320 181 c0 -134 1 -139 22 -144 12 -3 25 -4 30 -1 4 3 8 65 8 139
l0 134 38 4 c22 2 11 4 -30 5 l-68 2 0 -139z"/>
</g>
</svg>
